<?xml version="1.0" encoding="iso-8859-1"?>
<!-- Generator: Adobe Illustrator 19.0.0, SVG Export Plug-In . SVG Version: 6.00 Build 0)  -->
<svg version="1.1" id="Capa_1" xmlns="http://www.w3.org/2000/svg" xmlns:xlink="http://www.w3.org/1999/xlink" x="0px" y="0px"
	 viewBox="0 0 512.01 512.01" style="enable-background:new 0 0 512.01 512.01;" xml:space="preserve">
<g>
	<g>
		<g>
			<path d="M511.004,237.021c-0.422-3.505-2.96-6.389-6.383-7.253l-47.292-11.947c-1.902-10.06-4.555-19.964-7.936-29.628
				l34.756-33.732c2.538-3.001,3.259-7.138,1.886-10.82c-2.479-5.583-5.271-11.021-8.363-16.29
				c-3.019-5.293-6.321-10.421-9.89-15.36c-2.106-2.891-5.792-4.162-9.233-3.183l-47.07,13.44
				c-6.802-7.895-14.181-15.273-22.076-22.076l13.133-46.08c0.981-3.439-0.286-7.125-3.174-9.233
				c-4.942-3.557-10.069-6.85-15.36-9.865c-5.272-3.09-10.714-5.882-16.299-8.363c-3.26-1.418-7.057-0.667-9.532,1.886
				l-34.014,35.063c-9.974-3.54-20.208-6.302-30.609-8.26L281.602,8.029c-0.866-3.426-3.753-5.964-7.262-6.383
				c-12.194-1.341-24.499-1.341-36.693,0c-3.502,0.425-6.382,2.962-7.245,6.383l-11.947,47.292
				c-10.401,1.959-20.635,4.72-30.609,8.26l-34.005-35.081c-2.474-2.553-6.272-3.304-9.532-1.886
				c-5.589,2.485-11.033,5.283-16.307,8.38c-5.292,3.016-10.419,6.311-15.36,9.873c-2.898,2.105-4.173,5.797-3.191,9.242
				l13.133,46.08c-7.895,6.802-15.273,14.181-22.076,22.076l-47.053-13.431c-3.441-0.979-7.127,0.292-9.233,3.183
				c-3.568,4.939-6.866,10.066-9.882,15.36c-3.096,5.271-5.891,10.712-8.371,16.299c-0.449,1.062-0.656,2.21-0.606,3.362
				c-0.433,2.743,0.497,5.526,2.492,7.458l34.756,33.698c-3.381,9.664-6.034,19.568-7.936,29.628L7.383,229.768
				c-3.429,0.867-5.967,3.758-6.383,7.27c-0.697,6.085-1.031,12.205-0.998,18.33v1.28c-0.032,6.124,0.301,12.245,0.998,18.33
				c0.416,3.512,2.954,6.404,6.383,7.27l47.292,11.947c1.902,10.06,4.555,19.964,7.936,29.628l-34.756,33.732
				c-2.538,3.001-3.259,7.138-1.886,10.82c2.479,5.583,5.271,11.021,8.363,16.29c3.019,5.293,6.321,10.421,9.89,15.36
				c2.106,2.891,5.792,4.162,9.233,3.183l47.07-13.414c6.802,7.895,14.181,15.273,22.076,22.076l-13.133,46.08
				c-0.981,3.445,0.293,7.136,3.191,9.242c4.937,3.545,10.059,6.827,15.343,9.83c5.272,3.09,10.714,5.882,16.299,8.363
				c3.26,1.418,7.058,0.667,9.532-1.886l34.005-35.081c9.974,3.54,20.208,6.302,30.609,8.26l11.955,47.309
				c0.866,3.426,3.753,5.964,7.262,6.383c12.195,1.332,24.499,1.332,36.693,0c3.502-0.425,6.382-2.962,7.245-6.383l11.947-47.292
				c10.401-1.959,20.635-4.72,30.609-8.26l34.005,35.081c2.474,2.553,6.272,3.304,9.532,1.886c5.589-2.485,11.033-5.283,16.307-8.38
				c5.292-3.016,10.419-6.311,15.36-9.873c2.898-2.105,4.173-5.797,3.192-9.242l-13.133-46.08
				c7.895-6.802,15.273-14.181,22.076-22.076l47.07,13.414c3.441,0.979,7.127-0.292,9.233-3.183
				c3.568-4.939,6.866-10.066,9.882-15.36c3.096-5.271,5.891-10.712,8.371-16.299c0.449-1.062,0.656-2.21,0.606-3.362
				c0.433-2.743-0.497-5.526-2.492-7.458l-34.756-33.698c3.381-9.664,6.034-19.568,7.936-29.628l47.292-11.947
				c3.429-0.867,5.967-3.758,6.383-7.27c0.716-6.291,1.044-12.621,0.981-18.953c0-0.111,0-0.546,0-0.657
				C512.034,249.227,511.701,243.106,511.004,237.021z M494.594,267.178l-46.805,11.87c-3.306,0.833-5.799,3.554-6.34,6.921
				c-2.037,12.681-5.371,25.12-9.95,37.12c-1.223,3.191-0.424,6.804,2.031,9.182l34.799,33.741
				c-1.51,3.106-3.294,6.417-5.453,10.155c-1.86,3.234-3.686,6.204-5.521,8.969l-46.524-13.261
				c-3.278-0.915-6.788,0.189-8.951,2.816c-8.242,10.108-17.485,19.357-27.588,27.605c-2.642,2.154-3.749,5.673-2.816,8.951
				l12.971,45.517c-2.765,1.826-5.734,3.661-8.969,5.521c-3.413,1.954-6.434,3.61-9.293,5.026l-33.656-34.714
				c-2.39-2.466-6.025-3.26-9.224-2.014c-12.283,4.739-25.031,8.172-38.033,10.24c-3.361,0.543-6.077,3.031-6.912,6.332
				l-11.827,46.805c-7.013,0.452-14.048,0.452-21.06,0l-11.827-46.805c-0.835-3.3-3.551-5.789-6.912-6.332
				c-13.002-2.068-25.75-5.501-38.033-10.24c-3.2-1.246-6.835-0.452-9.225,2.014L145.82,467.31
				c-2.859-1.417-5.897-3.063-9.284-5.018c-3.243-1.869-6.212-3.703-8.977-5.53l12.971-45.517c0.933-3.278-0.174-6.798-2.816-8.951
				c-10.106-8.27-19.35-17.542-27.588-27.674c-2.163-2.629-5.673-3.733-8.951-2.816l-46.558,13.286
				c-1.835-2.765-3.661-5.734-5.53-8.969c-2.15-3.738-3.934-7.049-5.444-10.155l34.867-33.741c2.454-2.378,3.254-5.991,2.031-9.182
				c-4.579-12-7.913-24.439-9.95-37.12c-0.541-3.366-3.034-6.088-6.34-6.921L17.41,267.178c-0.23-3.302-0.341-6.827-0.341-10.522
				v-1.289c0-3.746,0.111-7.228,0.341-10.53l46.805-11.827c3.306-0.833,5.799-3.554,6.34-6.921c2.037-12.681,5.371-25.12,9.95-37.12
				c1.231-3.185,0.446-6.796-1.997-9.182l-34.833-33.741c1.51-3.106,3.294-6.417,5.453-10.155c1.86-3.234,3.686-6.204,5.521-8.969
				l46.524,13.261c3.278,0.933,6.798-0.174,8.951-2.816c8.242-10.108,17.485-19.357,27.588-27.605
				c2.642-2.154,3.749-5.673,2.816-8.951l-12.971-45.517c2.765-1.826,5.734-3.661,8.968-5.521c3.413-1.954,6.434-3.61,9.293-5.026
				l33.655,34.714c2.39,2.466,6.025,3.26,9.225,2.014c12.283-4.739,25.031-8.172,38.033-10.24c3.361-0.543,6.077-3.031,6.912-6.332
				l11.827-46.805c7.013-0.452,14.047-0.452,21.06,0l11.827,46.763c0.835,3.3,3.551,5.789,6.912,6.332
				c13.004,2.082,25.752,5.529,38.033,10.283c3.2,1.246,6.835,0.452,9.224-2.014l33.656-34.714c2.859,1.417,5.897,3.063,9.284,5.018
				c3.243,1.869,6.212,3.703,8.977,5.53l-12.971,45.517c-0.933,3.278,0.174,6.798,2.816,8.951
				c10.119,8.254,19.377,17.512,27.631,27.631c2.154,2.642,5.673,3.75,8.951,2.816l46.515-13.286
				c1.835,2.765,3.661,5.734,5.53,8.969c2.15,3.738,3.934,7.049,5.444,10.155l-34.867,33.741c-2.454,2.378-3.254,5.991-2.031,9.182
				c4.579,12,7.913,24.439,9.95,37.12c0.541,3.366,3.034,6.087,6.34,6.921l46.805,11.827c0.23,3.302,0.341,6.775,0.341,10.522
				l0.034,1.288C494.935,260.394,494.825,263.876,494.594,267.178z"/>
			<path d="M213.335,255.368c0,23.564,19.102,42.667,42.667,42.667s42.667-19.102,42.667-42.667
				c0-23.564-19.103-42.667-42.667-42.667C232.45,212.73,213.364,231.816,213.335,255.368z M256.002,229.768
				c14.138,0,25.6,11.462,25.6,25.6c0,14.138-11.462,25.6-25.6,25.6c-14.139,0-25.6-11.462-25.6-25.6
				C230.402,241.23,241.864,229.768,256.002,229.768z"/>
			<path d="M188.009,268.27c-0.787-4.04-1.193-8.146-1.212-12.262c0.109-29.3,18.717-55.334,46.404-64.922
				c3.44-1.194,5.743-4.44,5.734-8.081v-53.077c0-2.563-1.151-4.99-3.136-6.611c-1.985-1.621-4.593-2.264-7.104-1.752
				c-63.501,13.107-109.098,68.963-109.227,133.803c-0.034,14.729,2.371,29.363,7.117,43.307c0.836,2.421,2.716,4.338,5.12,5.222
				c0.954,0.362,1.966,0.547,2.987,0.546c1.497-0.004,2.968-0.398,4.267-1.143l44.971-26.027
				C187.066,275.445,188.702,271.833,188.009,268.27z M139.795,283.067c-2.181-9.071-3.275-18.37-3.26-27.699
				c0.099-52.816,34.756-99.343,85.333-114.56v36.352c-31.548,13.534-52.037,44.52-52.139,78.848
				c0.006,3.157,0.197,6.311,0.572,9.446L139.795,283.067z"/>
			<path d="M283.309,121.565c-2.511-0.513-5.119,0.131-7.104,1.752c-1.985,1.621-3.136,4.048-3.136,6.611v53.077
				c-0.001,3.635,2.3,6.872,5.734,8.064c27.695,9.588,46.305,35.631,46.404,64.939c-0.017,4.131-0.422,8.251-1.212,12.305
				c-0.685,3.566,0.962,7.175,4.105,8.994l44.971,26.027c1.299,0.745,2.769,1.139,4.267,1.143c1.02,0.001,2.032-0.184,2.987-0.546
				c2.404-0.884,4.284-2.801,5.12-5.222c4.741-13.956,7.137-28.601,7.091-43.341C392.407,190.529,346.81,134.672,283.309,121.565z
				 M372.209,283.067l-30.507-17.673c0.375-3.141,0.566-6.301,0.572-9.463c-0.132-34.3-20.617-65.248-52.139-78.771v-36.352
				c50.577,15.217,85.234,61.744,85.333,114.56C375.484,264.698,374.39,273.996,372.209,283.067z"/>
			<path d="M356.013,332.808l-44.8-25.856c-3.153-1.822-7.115-1.441-9.865,0.947c-25.97,22.698-64.722,22.698-90.692,0
				c-2.749-2.388-6.711-2.769-9.865-0.947l-44.8,25.856c-2.216,1.281-3.741,3.489-4.153,6.016s0.333,5.105,2.028,7.023
				c25.865,29.289,63.06,46.065,102.135,46.065c39.075,0,76.27-16.776,102.135-46.065c1.695-1.918,2.44-4.496,2.028-7.023
				S358.229,334.089,356.013,332.808z M256.002,374.835c-30.517-0.013-59.87-11.718-82.022-32.708l30.276-17.476
				c30.627,23.109,72.865,23.109,103.492,0l30.276,17.476C315.872,363.116,286.52,374.821,256.002,374.835z"/>
			<path d="M249.943,90.76c3.365,3.3,8.752,3.3,12.117,0c0.751-0.831,1.357-1.783,1.792-2.816c0.478-1.013,0.712-2.123,0.683-3.243
				c-0.031-2.259-0.915-4.423-2.475-6.059c-0.83-0.753-1.782-1.359-2.816-1.792c-1.555-0.686-3.287-0.865-4.949-0.512
				c-0.535,0.093-1.052,0.266-1.536,0.512c-0.544,0.187-1.06,0.445-1.536,0.768l-1.28,1.024c-1.559,1.635-2.443,3.799-2.475,6.059
				c0.013,1.115,0.245,2.217,0.683,3.243C248.586,88.977,249.192,89.929,249.943,90.76z"/>
			<path d="M165.489,114.303c0.893,0.676,1.894,1.196,2.961,1.536c4.566,1.182,9.236-1.514,10.496-6.059
				c0.231-1.094,0.28-2.218,0.145-3.328c-0.092-1.119-0.446-2.2-1.033-3.157c-1.161-1.935-3.007-3.363-5.171-4.002
				c-1.096-0.239-2.224-0.288-3.336-0.145c-1.688,0.189-3.277,0.895-4.548,2.022c-0.412,0.354-0.771,0.765-1.067,1.22
				c-0.379,0.433-0.698,0.915-0.947,1.434c-0.205,0.503-0.401,1.016-0.597,1.527c-0.542,2.189-0.238,4.503,0.853,6.477
				C163.822,112.794,164.585,113.635,165.489,114.303z"/>
			<path d="M114.929,164.855c-0.636-0.918-1.477-1.675-2.458-2.21c-1.978-1.09-4.293-1.395-6.485-0.853
				c-1.067,0.343-2.069,0.866-2.961,1.545c-1.371,1.006-2.394,2.414-2.927,4.028c-0.182,0.511-0.288,1.046-0.316,1.587
				c-0.112,0.562-0.147,1.136-0.102,1.707c0.077,0.546,0.162,1.084,0.247,1.621c0.637,2.168,2.07,4.015,4.011,5.171
				c0.969,0.547,2.036,0.898,3.14,1.033c1.112,0.143,2.241,0.094,3.336-0.145c4.545-1.26,7.24-5.93,6.059-10.496
				C116.131,166.766,115.609,165.756,114.929,164.855z"/>
			<path d="M88.578,247.517c-1.013-0.478-2.123-0.712-3.243-0.683c-2.259,0.031-4.423,0.915-6.059,2.475
				c-0.753,0.83-1.359,1.782-1.792,2.816c-0.686,1.555-0.865,3.287-0.512,4.949c0.093,0.535,0.265,1.052,0.512,1.536
				c0.187,0.544,0.445,1.06,0.768,1.536l1.024,1.28c1.635,1.559,3.799,2.443,6.059,2.475c1.115-0.013,2.217-0.245,3.243-0.683
				c1.033-0.435,1.985-1.041,2.816-1.792c3.3-3.365,3.3-8.752,0-12.117C90.563,248.558,89.611,247.952,88.578,247.517z"/>
			<path d="M110.415,332.458v-0.034c-1.094-0.231-2.218-0.28-3.328-0.145c-1.116,0.091-2.195,0.445-3.149,1.033
				c-1.939,1.158-3.371,3.005-4.011,5.171c-0.239,1.096-0.288,2.224-0.145,3.337c0.189,1.688,0.895,3.277,2.022,4.548
				c0.356,0.409,0.767,0.768,1.22,1.067c0.433,0.379,0.915,0.698,1.434,0.947l1.527,0.597c2.192,0.541,4.508,0.237,6.485-0.853
				c0.958-0.57,1.795-1.32,2.466-2.21c0.676-0.893,1.196-1.894,1.536-2.961C117.655,338.389,114.96,333.718,110.415,332.458z"/>
			<path d="M174.935,395.775c-1.96-1.141-4.297-1.448-6.485-0.853c-1.067,0.345-2.068,0.867-2.961,1.545
				c-0.918,0.636-1.675,1.477-2.21,2.458c-1.09,1.977-1.395,4.293-0.853,6.485c0.343,1.067,0.866,2.069,1.545,2.961
				c1.006,1.371,2.413,2.394,4.028,2.927c0.511,0.182,1.046,0.288,1.587,0.316c0.562,0.112,1.136,0.147,1.707,0.102l1.621-0.247
				c2.168-0.637,4.015-2.07,5.171-4.011c0.547-0.969,0.898-2.036,1.033-3.14c0.143-1.112,0.094-2.241-0.145-3.337
				C178.382,398.773,176.927,396.896,174.935,395.775z"/>
			<path d="M262.061,419.976c-3.365-3.3-8.752-3.3-12.117,0c-0.751,0.831-1.357,1.783-1.792,2.816
				c-0.478,1.013-0.712,2.123-0.683,3.243c0.033,2.259,0.917,4.422,2.475,6.059c0.83,0.753,1.782,1.359,2.816,1.792
				c1.556,0.682,3.287,0.861,4.949,0.512c0.535-0.093,1.052-0.266,1.536-0.512c0.544-0.187,1.06-0.445,1.536-0.768l1.28-1.024
				c1.558-1.636,2.442-3.8,2.475-6.059c-0.013-1.115-0.245-2.217-0.683-3.243C263.418,421.759,262.812,420.807,262.061,419.976z"/>
			<path d="M346.515,396.433c-0.893-0.676-1.894-1.196-2.961-1.536c-4.566-1.182-9.236,1.514-10.496,6.059
				c-0.231,1.094-0.28,2.218-0.145,3.328c0.091,1.116,0.445,2.195,1.033,3.149c1.158,1.939,3.005,3.371,5.171,4.011
				c1.096,0.239,2.224,0.288,3.337,0.145c1.684-0.177,3.272-0.868,4.548-1.98c0.412-0.354,0.771-0.765,1.067-1.22
				c0.379-0.433,0.698-0.915,0.947-1.434c0.205-0.503,0.401-1.016,0.597-1.527c0.541-2.192,0.237-4.508-0.853-6.485
				C348.184,397.965,347.421,397.113,346.515,396.433z"/>
			<path d="M412.077,338.457c-0.643-2.158-2.075-3.995-4.011-5.146c-0.969-0.547-2.036-0.898-3.14-1.033
				c-1.112-0.143-2.241-0.094-3.337,0.145c-4.545,1.26-7.24,5.93-6.059,10.496c0.345,1.067,0.867,2.068,1.545,2.961
				c0.636,0.918,1.477,1.675,2.458,2.21c1.978,1.09,4.293,1.395,6.485,0.853c1.067-0.343,2.069-0.866,2.961-1.544
				c1.371-1.006,2.394-2.414,2.927-4.028c0.183-0.511,0.289-1.045,0.316-1.587c0.112-0.561,0.147-1.136,0.102-1.707
				C412.247,339.532,412.162,338.995,412.077,338.457z"/>
			<path d="M434.519,252.125c-0.186-0.544-0.445-1.06-0.768-1.536l-1.024-1.28c-1.635-1.559-3.799-2.443-6.059-2.475
				c-1.115,0.013-2.217,0.245-3.243,0.683c-1.033,0.435-1.985,1.041-2.816,1.792c-3.3,3.365-3.3,8.752,0,12.117
				c0.831,0.751,1.783,1.357,2.816,1.792c1.013,0.478,2.123,0.712,3.243,0.683c2.259-0.031,4.423-0.915,6.059-2.475
				c0.753-0.83,1.359-1.782,1.792-2.816c0.686-1.555,0.865-3.287,0.512-4.949C434.939,253.127,434.766,252.609,434.519,252.125z"/>
			<path d="M401.589,178.321v0.034c1.094,0.231,2.218,0.28,3.328,0.145c1.116-0.091,2.195-0.445,3.149-1.033
				c1.939-1.158,3.371-3.005,4.011-5.171c0.239-1.096,0.288-2.224,0.145-3.337c-0.189-1.688-0.895-3.277-2.022-4.548
				c-0.354-0.412-0.765-0.771-1.22-1.067c-0.433-0.379-0.915-0.698-1.434-0.947l-1.527-0.597c-2.192-0.541-4.508-0.237-6.485,0.853
				c-0.958,0.57-1.795,1.32-2.466,2.21c-0.676,0.893-1.196,1.894-1.536,2.961C394.349,172.39,397.045,177.06,401.589,178.321z"/>
			<path d="M337.069,114.96c1.96,1.141,4.296,1.448,6.485,0.853c1.067-0.345,2.068-0.867,2.961-1.544
				c0.92-0.637,1.678-1.482,2.21-2.466c1.091-1.974,1.396-4.288,0.853-6.477c-0.337-1.05-0.848-2.037-1.51-2.918
				c-1.006-1.371-2.413-2.394-4.028-2.927c-0.511-0.182-1.046-0.288-1.587-0.316c-0.562-0.112-1.136-0.147-1.707-0.102l-1.621,0.247
				c-2.166,0.636-4.012,2.065-5.171,4.002c-0.547,0.972-0.897,2.042-1.033,3.149c-0.143,1.112-0.094,2.241,0.145,3.336
				C333.658,111.984,335.099,113.843,337.069,114.96z"/>
		</g>
	</g>
</g>
<g>
</g>
<g>
</g>
<g>
</g>
<g>
</g>
<g>
</g>
<g>
</g>
<g>
</g>
<g>
</g>
<g>
</g>
<g>
</g>
<g>
</g>
<g>
</g>
<g>
</g>
<g>
</g>
<g>
</g>
</svg>
